<?xml version="1.0" standalone="no"?>
<!DOCTYPE svg PUBLIC "-//W3C//DTD SVG 20010904//EN"
 "http://www.w3.org/TR/2001/REC-SVG-20010904/DTD/svg10.dtd">
<svg version="1.0" xmlns="http://www.w3.org/2000/svg"
 width="700.000000pt" height="700.000000pt" viewBox="0 0 700.000000 700.000000"
 preserveAspectRatio="xMidYMid meet">
<metadata>
Created by potrace 1.11, written by Peter Selinger 2001-2013
</metadata>
<g transform="translate(0.000000,700.000000) scale(0.100000,-0.100000)"
fill="#000000" stroke="none">
<path d="M3299 6867 c4 -4 48 -6 97 -5 l89 3 -97 5 c-53 3 -94 1 -89 -3z"/>
<path d="M3176 6859 c5 -9 -134 -21 -148 -13 -7 4 -8 3 -4 -4 5 -8 -1 -12 -16
-12 -34 0 -192 -32 -201 -40 -5 -4 31 0 80 10 80 16 285 45 373 53 24 2 15 4
-27 7 -33 3 -59 2 -57 -1z"/>
<path d="M3583 6863 c26 -2 68 -2 95 0 26 2 4 3 -48 3 -52 0 -74 -1 -47 -3z"/>
<path d="M3790 6861 l-65 -6 90 -7 c50 -4 157 -19 239 -33 82 -14 151 -23 153
-21 5 4 -163 36 -190 36 -11 0 -15 4 -11 12 4 7 3 8 -4 4 -16 -10 -153 4 -146
15 3 5 4 8 2 7 -2 -1 -32 -4 -68 -7z"/>
<path d="M4228 6783 c7 -3 16 -2 19 1 4 3 -2 6 -13 5 -11 0 -14 -3 -6 -6z"/>
<path d="M2738 6773 c7 -3 16 -2 19 1 4 3 -2 6 -13 5 -11 0 -14 -3 -6 -6z"/>
<path d="M4278 6773 c7 -3 16 -2 19 1 4 3 -2 6 -13 5 -11 0 -14 -3 -6 -6z"/>
<path d="M2655 6755 c-39 -14 -40 -14 -5 -8 41 7 82 22 60 22 -8 0 -33 -7 -55
-14z"/>
<path d="M4325 6760 c11 -5 27 -9 35 -9 9 0 8 4 -5 9 -11 5 -27 9 -35 9 -9 0
-8 -4 5 -9z"/>
<path d="M4388 6743 c7 -3 16 -2 19 1 4 3 -2 6 -13 5 -11 0 -14 -3 -6 -6z"/>
<path d="M4473 6730 c2 -8 12 -16 23 -17 13 -2 15 -1 4 4 -8 3 -19 11 -23 17
-6 7 -7 6 -4 -4z"/>
<path d="M2415 6689 c-27 -11 -69 -26 -93 -35 -24 -9 -42 -18 -40 -19 3 -3
129 39 188 63 45 19 -4 10 -55 -9z"/>
<path d="M4620 6674 c112 -41 149 -52 100 -29 -45 22 -170 65 -184 64 -6 0 32
-16 84 -35z"/>
<path d="M2240 6620 c-8 -5 -10 -10 -5 -10 6 0 17 5 25 10 8 5 11 10 5 10 -5
0 -17 -5 -25 -10z"/>
<path d="M4773 6619 c29 -17 87 -40 87 -34 0 6 -87 45 -98 45 -4 0 1 -5 11
-11z"/>
<path d="M2160 6585 c-25 -13 -42 -24 -39 -25 10 0 99 40 99 45 0 9 -15 4 -60
-20z"/>
<path d="M1997 6513 c-37 -20 -66 -37 -64 -39 2 -2 37 14 78 36 41 22 70 39
64 39 -5 0 -40 -16 -78 -36z"/>
<path d="M5015 6510 c39 -21 75 -39 80 -39 6 0 -21 17 -60 39 -38 22 -74 40
-80 40 -5 0 22 -18 60 -40z"/>
<path d="M1857 6436 c-57 -34 -69 -51 -15 -21 26 15 50 31 53 36 8 12 7 11
-38 -15z"/>
<path d="M5140 6446 c0 -3 14 -12 30 -21 17 -9 30 -13 30 -11 0 3 -13 12 -30
21 -16 9 -30 13 -30 11z"/>
<path d="M3578 6393 c28 -2 76 -2 105 0 28 2 5 3 -53 3 -58 0 -81 -1 -52 -3z"/>
<path d="M3425 6379 c-61 -14 -174 -59 -191 -76 -8 -9 -18 -13 -21 -10 -12 13
-137 -68 -128 -83 2 -4 -7 -18 -20 -30 -14 -13 -25 -20 -25 -15 0 5 -12 -2
-26 -16 -27 -25 -74 -109 -74 -131 0 -7 14 16 30 51 17 35 33 62 36 59 2 -3
-4 -21 -15 -39 -29 -50 -54 -165 -47 -219 7 -55 35 -143 48 -151 5 -3 -18 -9
-53 -13 -34 -4 -99 -19 -143 -34 -45 -15 -88 -26 -96 -25 -8 1 -17 -2 -20 -6
-3 -5 -48 -30 -100 -56 -115 -57 -160 -84 -160 -96 0 -5 8 -9 18 -9 9 -1 2 -7
-17 -15 -40 -18 -44 -18 -35 -4 3 6 -5 3 -20 -6 -32 -21 -34 -29 -3 -15 15 7
13 4 -7 -12 -79 -62 -157 -117 -151 -108 3 6 -1 7 -10 4 -9 -4 -13 -9 -10 -12
7 -7 -25 -42 -38 -42 -6 0 -2 10 9 23 11 12 5 9 -13 -7 -18 -16 -30 -32 -28
-36 2 -4 -14 -24 -35 -45 -22 -22 -40 -35 -40 -30 0 4 -9 0 -20 -10 -11 -10
-18 -20 -16 -24 2 -3 -16 -28 -41 -56 -25 -27 -40 -41 -32 -30 7 11 24 32 38
47 13 15 23 29 20 31 -2 2 -29 -26 -58 -62 -30 -36 -45 -57 -33 -47 12 11 22
14 22 8 0 -6 -17 -24 -38 -40 -34 -27 -149 -210 -168 -267 -3 -11 22 30 57 92
35 62 74 125 87 140 l24 28 -18 -30 c-10 -16 -42 -70 -71 -119 -29 -49 -57
-104 -64 -123 -6 -18 -14 -33 -18 -33 -17 0 -82 -257 -79 -315 l1 -30 4 30 c8
61 55 260 65 275 7 11 8 8 3 -10 -49 -196 -59 -269 -60 -435 0 -163 1 -175 33
-284 18 -63 31 -116 29 -118 -2 -2 -10 17 -17 42 -7 25 -15 44 -17 41 -3 -2 3
-29 13 -60 10 -31 20 -53 23 -50 3 2 22 -39 43 -92 21 -54 36 -99 35 -101 -2
-2 -18 2 -36 8 -31 11 -54 9 -96 -6 l-20 -7 20 17 c15 12 33 15 68 12 44 -4
47 -3 41 17 -4 12 -13 32 -21 46 -9 16 -12 17 -8 5 19 -56 20 -55 -23 -55 -25
0 -49 -7 -63 -20 -13 -10 -20 -19 -15 -20 5 0 3 -7 -4 -15 -7 -8 -16 -13 -20
-10 -5 3 -12 0 -16 -6 -5 -8 -3 -9 6 -4 10 6 11 4 5 -11 -29 -70 -37 -107 -37
-171 0 -60 5 -84 31 -139 35 -75 36 -78 19 -68 -8 4 -10 3 -5 -2 5 -5 12 -9
17 -9 8 0 100 -118 100 -129 0 -4 -5 -4 -10 -1 -6 3 12 -23 40 -60 27 -36 50
-71 50 -77 0 -6 3 -8 6 -5 7 7 -33 74 -70 117 l-21 25 24 -20 c41 -35 81 -102
97 -166 13 -51 14 -75 5 -136 -18 -123 -15 -157 25 -233 40 -79 71 -98 117
-73 15 7 27 19 28 26 0 7 8 29 17 50 l17 38 30 -33 c17 -18 20 -24 8 -14 -35
29 -27 14 9 -20 18 -16 26 -21 19 -11 -9 11 -10 17 -2 17 6 0 18 -11 27 -24
18 -28 71 -62 128 -82 56 -20 55 -10 -1 11 -50 19 -116 55 -111 60 2 2 35 -12
73 -30 145 -69 344 -107 652 -121 88 -5 138 -11 123 -15 -18 -5 -9 -7 32 -8
76 -1 281 -30 292 -41 5 -5 -3 -47 -17 -97 -14 -48 -24 -90 -22 -91 5 -5 42
114 50 161 8 42 10 41 -133 63 l-87 13 72 -4 c40 -3 95 -10 122 -16 l49 -10
-10 -42 c-27 -128 -128 -389 -163 -424 -8 -8 -15 -20 -15 -26 0 -7 5 -6 11 3
20 28 3 -20 -51 -145 -106 -244 -102 -231 -103 -329 -1 -79 2 -97 21 -128 12
-20 29 -39 37 -42 29 -11 14 -25 -40 -37 -44 -10 -66 -10 -108 0 -47 11 -65
10 -182 -13 -176 -36 -191 -42 -248 -95 -83 -77 -92 -104 -91 -261 0 -158 16
-229 74 -337 44 -82 81 -119 160 -162 105 -56 192 -61 850 -47 379 8 442 7
585 -9 180 -20 338 -17 545 10 315 42 429 83 494 178 82 119 105 257 67 407
-12 47 -33 110 -48 140 -35 71 -123 159 -195 194 -77 38 -153 34 -250 -11
-121 -57 -196 -53 -223 11 -34 82 -117 406 -145 568 -19 110 -39 393 -40 566
l0 62 33 -1 c30 -2 30 -2 4 -6 l-27 -4 5 -157 c10 -296 15 -342 33 -342 12 0
13 3 5 8 -13 8 -18 74 -28 338 l-5 142 35 6 c22 4 33 11 29 18 -5 7 5 9 32 5
21 -4 31 -3 21 1 -13 6 25 21 130 51 81 24 189 57 238 73 89 28 165 45 155 36
-3 -3 -78 -27 -168 -53 -89 -26 -161 -50 -159 -52 8 -7 367 104 360 112 -5 4
8 5 29 1 33 -6 127 19 115 30 -2 3 -20 -3 -40 -11 -20 -8 -44 -15 -54 -14 -10
1 0 7 23 14 22 7 55 20 72 29 37 19 46 20 36 3 -4 -7 -3 -9 2 -4 5 5 9 14 9
20 0 5 6 12 14 15 9 3 11 0 6 -8 -5 -9 -4 -11 4 -6 6 4 9 11 6 15 -5 9 42 57
49 50 2 -2 6 -17 10 -32 5 -21 4 -27 -5 -21 -8 5 -9 3 -5 -5 5 -7 10 -10 13
-7 3 3 19 -6 35 -19 40 -34 54 -32 99 14 21 21 40 36 42 34 3 -2 14 20 27 48
l22 52 -22 109 c-23 112 -22 153 7 233 7 22 9 35 4 30 -6 -6 -17 -35 -25 -65
-11 -42 -15 -48 -15 -25 -1 38 37 121 76 166 16 19 42 52 56 74 15 22 27 35
27 30 1 -17 61 86 76 128 20 57 11 57 -11 0 -19 -50 -55 -116 -61 -111 -1 2
14 37 34 78 35 70 37 78 37 174 0 112 -17 161 -76 225 -27 30 -35 33 -69 28
-25 -3 -41 -1 -43 7 -3 6 -8 -1 -12 -16 -4 -16 -11 -28 -16 -28 -4 0 -1 17 7
37 62 148 96 488 76 751 -16 204 -33 293 -71 379 -35 80 -40 107 -11 53 11
-19 19 -31 20 -27 0 11 -31 71 -41 77 -12 8 -60 82 -56 86 2 2 16 -13 30 -33
15 -21 27 -34 27 -30 0 15 -52 76 -62 74 -6 -1 -13 4 -16 12 -3 9 0 11 8 6 9
-5 11 -4 6 4 -4 6 -11 9 -16 6 -8 -5 -60 57 -60 72 0 4 14 -8 31 -27 28 -32
29 -33 10 -4 -20 31 -49 59 -60 59 -3 0 -5 4 -3 8 1 5 -2 6 -6 3 -5 -3 -59 45
-119 107 -102 104 -218 190 -288 212 -11 4 3 -6 30 -22 79 -45 195 -122 195
-129 0 -3 -15 4 -32 15 -18 12 -76 47 -128 79 -52 31 -97 60 -100 63 -7 10
-141 76 -170 83 -14 4 16 -13 65 -38 109 -54 108 -60 -1 -10 -81 37 -291 109
-350 120 -19 3 -34 8 -34 9 0 2 14 29 30 60 47 89 42 188 -16 329 -6 15 -4 17
7 11 8 -5 11 -5 6 1 -5 5 -12 9 -17 9 -10 0 -71 82 -74 99 -3 19 -15 34 -59
68 -23 18 -36 25 -28 15 8 -10 9 -17 3 -17 -11 0 -27 19 -27 32 0 3 -4 10 -9
15 -5 5 -6 3 -2 -4 4 -7 5 -13 1 -13 -11 0 -110 60 -100 61 35 3 -268 90 -309
88 -11 0 24 -11 79 -24 55 -13 125 -33 155 -44 64 -25 46 -21 -110 22 -104 28
-129 31 -255 31 -145 0 -179 -6 -298 -51 -38 -14 -70 -23 -73 -20 -9 8 129 57
202 71 38 8 56 14 39 14 -16 0 -48 -4 -70 -9z m-220 -97 c-23 -20 -108 -73
-111 -69 -6 6 100 76 116 77 2 0 0 -4 -5 -8z m1060 -113 l20 -23 -32 23 c-38
26 -56 49 -27 33 11 -6 28 -20 39 -33z m-1225 -18 c0 -5 -7 -12 -16 -15 -14
-5 -15 -4 -4 9 14 17 20 19 20 6z m-1005 -1000 c-3 -6 -11 -11 -17 -11 -6 0
-6 6 2 15 14 17 26 13 15 -4z m2886 -291 c195 -71 406 -244 538 -440 l63 -95
-5 -170 c-8 -237 -26 -329 -121 -605 -52 -152 -67 -236 -77 -410 -4 -85 -8
-158 -9 -162 0 -4 -26 7 -57 23 -194 100 -588 59 -648 -67 -15 -33 -15 -37 2
-67 51 -88 279 -146 463 -118 95 15 191 46 218 72 27 25 27 17 2 -89 -32 -134
-95 -233 -157 -248 -15 -3 -129 -36 -253 -72 -124 -35 -250 -71 -280 -79 -30
-8 -104 -27 -165 -44 -246 -66 -385 -95 -500 -104 -94 -8 -345 8 -465 30 -256
46 -326 55 -555 70 -137 9 -277 20 -310 26 -33 5 -77 9 -98 9 -44 -1 -235 61
-293 95 -64 38 -141 112 -163 158 -15 31 -21 63 -21 114 l0 71 38 -13 c55 -19
251 -28 376 -17 88 9 120 16 170 41 73 36 93 56 102 99 23 113 -296 195 -571
147 -48 -9 -96 -20 -106 -26 -14 -7 -20 -6 -23 3 -21 84 -56 236 -56 246 0 8
-30 89 -66 180 -124 313 -200 554 -210 662 l-6 65 61 63 c34 34 61 67 61 73 0
9 43 78 72 114 50 64 86 112 89 121 2 6 42 46 89 89 97 89 154 120 211 112 22
-3 39 -1 41 5 5 15 261 22 333 9 33 -6 85 -12 115 -14 34 -2 127 -28 236 -65
280 -96 320 -103 580 -104 121 -1 225 1 230 4 5 3 27 9 49 13 63 11 251 74
350 117 49 21 95 36 102 34 6 -3 13 -2 15 2 4 10 287 150 323 161 17 5 69 10
117 10 73 1 101 -4 169 -29z m666 -1198 c7 -4 -14 -8 -45 -8 -37 -1 -50 2 -37
7 26 10 67 11 82 1z m-7 -42 c46 -25 87 -148 75 -228 -8 -54 -60 -172 -103
-234 -77 -112 -121 -186 -131 -223 -16 -57 -14 -163 5 -241 13 -57 13 -76 3
-112 -13 -47 -79 -126 -86 -104 -3 6 -8 10 -13 7 -5 -3 -14 12 -20 32 -7 21
-17 43 -22 50 -7 8 -4 27 6 55 41 109 47 154 56 398 8 258 18 326 67 473 28
81 29 82 82 110 63 31 57 30 81 17z m-3814 -84 c48 -23 52 -27 83 -105 18 -45
30 -88 27 -96 -2 -7 -1 -15 3 -17 11 -4 68 -179 86 -266 l15 -72 -45 -44 c-25
-23 -45 -49 -45 -58 0 -21 38 -67 73 -89 30 -17 31 -20 35 -111 2 -51 8 -101
14 -111 5 -9 6 -23 2 -29 -4 -7 -3 -8 4 -4 14 9 15 2 3 -22 -6 -9 -12 -28 -15
-42 -15 -66 -51 -63 -101 10 -27 39 -29 49 -25 109 2 36 4 109 4 161 1 115
-15 156 -101 263 -109 135 -136 178 -155 245 -21 79 -22 115 -3 202 14 66 39
100 74 100 9 0 39 -11 67 -24z m3705 -977 c-12 -24 -18 -35 -15 -24 18 57 20
85 8 140 -7 33 -13 74 -13 90 1 17 10 -13 21 -66 l20 -96 -21 -44z m-3483
-175 c-15 -8 -30 -9 -50 -2 -15 6 -28 11 -28 11 0 1 22 2 49 2 43 0 47 -2 29
-11z m1547 -215 c171 -25 486 -20 563 8 15 6 15 5 3 -10 -7 -9 -17 -15 -20
-12 -4 2 -8 -2 -8 -9 0 -20 -41 -67 -90 -104 -72 -55 -393 -200 -488 -221 -18
-4 -35 -17 -42 -32 -46 -95 -105 -490 -88 -588 6 -34 11 -41 30 -41 13 0 53
-16 90 -35 37 -20 90 -42 118 -49 82 -22 188 -63 205 -79 23 -23 9 -42 -55
-73 -50 -25 -69 -29 -138 -28 -66 1 -104 10 -219 48 -181 60 -250 104 -305
196 -49 82 -15 209 159 595 15 33 30 71 34 85 16 54 29 79 39 73 6 -3 7 -1 3
6 -4 6 6 51 22 99 16 48 35 111 42 140 l12 54 37 -7 c20 -4 63 -11 96 -16z
m590 -1066 c14 -47 15 -64 4 -102 -25 -97 -49 -115 -184 -136 -99 -16 -245
-13 -245 5 0 4 21 13 47 20 52 15 113 63 113 89 0 18 -31 51 -64 68 -16 9 -10
12 35 18 86 11 191 46 229 76 19 15 38 25 42 23 4 -2 14 -30 23 -61z"/>
<path d="M3698 4533 c7 -3 16 -2 19 1 4 3 -2 6 -13 5 -11 0 -14 -3 -6 -6z"/>
<path d="M5502 4150 c0 -14 2 -19 5 -12 2 6 2 18 0 25 -3 6 -5 1 -5 -13z"/>
<path d="M5491 4014 c0 -11 3 -14 6 -6 3 7 2 16 -1 19 -3 4 -6 -2 -5 -13z"/>
<path d="M4910 3345 c-117 -101 -271 -150 -445 -142 -106 5 -167 21 -304 84
-52 23 -78 30 -85 23 -32 -32 91 -100 257 -142 112 -28 261 -22 367 16 41 14
79 31 84 36 6 6 17 10 26 10 31 0 136 76 149 108 23 54 7 56 -49 7z"/>
<path d="M2210 3305 c0 -30 185 -130 300 -161 92 -26 259 -23 363 5 81 21 185
70 225 105 20 18 31 66 15 66 -10 0 -51 -27 -95 -62 -69 -55 -251 -95 -388
-84 -81 6 -173 32 -164 47 3 5 -2 6 -10 3 -15 -6 -107 40 -155 77 -29 23 -91
26 -91 4z"/>
<path d="M4468 3213 c18 -2 45 -2 60 0 15 2 0 4 -33 4 -33 0 -45 -2 -27 -4z"/>
<path d="M3926 2641 c-27 -21 -53 -46 -58 -54 -13 -24 -108 -74 -153 -81 -56
-10 -180 31 -281 91 -73 44 -128 73 -139 73 -3 0 -5 -8 -5 -18 0 -29 48 -68
145 -115 237 -118 346 -105 512 63 24 25 49 53 54 63 17 30 -22 19 -75 -22z"/>
<path d="M3658 2203 c6 -2 18 -2 25 0 6 3 1 5 -13 5 -14 0 -19 -2 -12 -5z"/>
<path d="M1982 2640 c0 -14 2 -19 5 -12 2 6 2 18 0 25 -3 6 -5 1 -5 -13z"/>
<path d="M1687 6335 c-37 -25 -67 -48 -67 -51 0 -2 26 13 58 34 31 21 66 44
77 50 11 6 15 12 10 12 -6 0 -41 -20 -78 -45z"/>
<path d="M5303 6350 c62 -39 76 -39 17 0 -25 16 -49 30 -54 30 -6 0 11 -13 37
-30z"/>
<path d="M5360 6306 c0 -2 7 -7 16 -10 8 -3 12 -2 9 4 -6 10 -25 14 -25 6z"/>
<path d="M4100 6290 c35 -24 54 -31 30 -11 -14 11 -29 21 -35 21 -5 0 -3 -5 5
-10z"/>
<path d="M1579 6253 c-13 -16 -12 -17 4 -4 9 7 17 15 17 17 0 8 -8 3 -21 -13z"/>
<path d="M5445 6251 c19 -22 55 -46 55 -38 0 3 -17 17 -37 33 -31 23 -34 24
-18 5z"/>
<path d="M1539 6223 c-13 -16 -12 -17 4 -4 16 13 21 21 13 21 -2 0 -10 -8 -17
-17z"/>
<path d="M1465 6172 c-22 -20 -62 -56 -90 -79 -27 -24 -47 -43 -43 -43 4 0 48
36 98 80 50 44 87 80 83 80 -4 0 -26 -17 -48 -38z"/>
<path d="M3049 6193 c-13 -16 -12 -17 4 -4 16 13 21 21 13 21 -2 0 -10 -8 -17
-17z"/>
<path d="M5535 6185 c92 -81 147 -127 150 -124 2 3 -28 31 -67 64 -73 62 -136
107 -83 60z"/>
<path d="M4325 6103 c15 -24 30 -43 32 -43 7 0 -31 61 -46 73 -8 7 -2 -7 14
-30z"/>
<path d="M5775 5970 c44 -44 82 -80 85 -80 2 0 -31 36 -75 80 -44 44 -82 80
-85 80 -2 0 31 -36 75 -80z"/>
<path d="M1255 5978 l-40 -43 43 40 c23 21 42 40 42 42 0 8 -9 0 -45 -39z"/>
<path d="M4381 6015 c0 -5 6 -21 14 -35 8 -14 14 -20 14 -15 0 6 -6 21 -14 35
-8 14 -14 21 -14 15z"/>
<path d="M2932 5980 c0 -14 2 -19 5 -12 2 6 2 18 0 25 -3 6 -5 1 -5 -13z"/>
<path d="M2923 5900 c0 -30 2 -43 4 -27 2 15 2 39 0 55 -2 15 -4 2 -4 -28z"/>
<path d="M4411 5934 c0 -11 3 -14 6 -6 3 7 2 16 -1 19 -3 4 -6 -2 -5 -13z"/>
<path d="M1165 5888 l-40 -43 43 40 c39 36 47 45 39 45 -2 0 -21 -19 -42 -42z"/>
<path d="M4422 5890 c0 -14 2 -19 5 -12 2 6 2 18 0 25 -3 6 -5 1 -5 -13z"/>
<path d="M5895 5840 c21 -22 41 -40 43 -40 9 0 -63 78 -73 79 -5 1 9 -17 30
-39z"/>
<path d="M4432 5825 c0 -16 2 -22 5 -12 2 9 2 23 0 30 -3 6 -5 -1 -5 -18z"/>
<path d="M1104 5818 l-19 -23 23 19 c21 18 27 26 19 26 -2 0 -12 -10 -23 -22z"/>
<path d="M2931 5829 c-1 -18 20 -82 25 -77 2 2 -3 24 -11 48 -7 25 -14 38 -14
29z"/>
<path d="M4421 5770 c-1 -14 -14 -49 -30 -78 -16 -28 -25 -50 -20 -46 18 11
60 106 56 127 -4 20 -4 19 -6 -3z"/>
<path d="M5964 5758 c16 -21 30 -38 33 -38 8 0 -16 36 -38 55 -19 16 -18 13 5
-17z"/>
<path d="M1058 5763 c-18 -21 -31 -43 -25 -43 2 0 13 14 25 30 25 33 24 41 0
13z"/>
<path d="M2940 5730 l-25 -8 28 -1 c15 -1 27 4 27 9 0 6 -1 10 -2 9 -2 -1 -14
-5 -28 -9z"/>
<path d="M1000 5698 c-29 -44 -32 -53 -6 -23 22 26 32 45 23 45 -1 0 -9 -10
-17 -22z"/>
<path d="M2815 5701 c-78 -23 -119 -40 -113 -46 3 -3 22 2 44 11 21 9 68 25
104 35 36 9 56 17 45 17 -11 0 -47 -7 -80 -17z"/>
<path d="M6045 5650 c10 -11 20 -20 23 -20 3 0 -3 9 -13 20 -10 11 -20 20 -23
20 -3 0 3 -9 13 -20z"/>
<path d="M2625 5630 c-3 -6 1 -7 9 -4 18 7 21 14 7 14 -6 0 -13 -4 -16 -10z"/>
<path d="M4465 5615 c44 -13 100 -31 124 -39 24 -9 46 -14 48 -12 6 6 -212 76
-234 75 -10 0 18 -11 62 -24z"/>
<path d="M2545 5590 c-27 -16 -46 -30 -42 -30 4 0 31 13 60 30 29 16 48 30 42
30 -5 0 -32 -14 -60 -30z"/>
<path d="M2458 5544 c-38 -20 -36 -28 2 -9 17 9 30 18 30 20 0 7 -1 6 -32 -11z"/>
<path d="M6144 5509 c20 -29 36 -58 36 -63 0 -5 3 -7 6 -3 8 7 -38 88 -61 107
-9 7 0 -11 19 -41z"/>
<path d="M866 5498 c-37 -59 -73 -128 -59 -113 15 15 103 165 98 165 -3 0 -20
-24 -39 -52z"/>
<path d="M2400 5491 c0 -6 4 -13 10 -16 6 -3 7 1 4 9 -7 18 -14 21 -14 7z"/>
<path d="M2289 5402 c-19 -15 -46 -35 -60 -45 -23 -17 -23 -17 9 0 32 17 103
72 92 72 -3 0 -21 -12 -41 -27z"/>
<path d="M766 5313 c-6 -14 -5 -15 5 -6 7 7 10 15 7 18 -3 3 -9 -2 -12 -12z"/>
<path d="M6250 5321 c0 -6 4 -13 10 -16 6 -3 7 1 4 9 -7 18 -14 21 -14 7z"/>
<path d="M5210 5225 c35 -36 67 -65 69 -65 3 0 -24 29 -59 65 -35 36 -67 65
-69 65 -3 0 24 -29 59 -65z"/>
<path d="M6280 5261 c0 -6 4 -13 10 -16 6 -3 7 1 4 9 -7 18 -14 21 -14 7z"/>
<path d="M2049 5203 c-13 -16 -12 -17 4 -4 9 7 17 15 17 17 0 8 -8 3 -21 -13z"/>
<path d="M676 5124 c-20 -48 -35 -89 -33 -91 2 -2 20 36 40 84 20 48 35 88 33
90 -2 2 -20 -35 -40 -83z"/>
<path d="M6310 5209 c0 -4 9 -26 20 -50 11 -24 19 -37 19 -29 0 15 -38 91 -39
79z"/>
<path d="M6386 4997 c9 -27 18 -46 20 -44 5 5 -16 69 -27 82 -5 5 -2 -12 7
-38z"/>
<path d="M631 4993 c-1 -6 -4 -20 -7 -30 -5 -17 -5 -17 6 0 6 10 9 23 6 30 -3
9 -5 9 -5 0z"/>
<path d="M600 4907 c0 -1 -4 -18 -10 -36 -5 -19 -6 -30 -1 -25 10 11 24 64 16
64 -3 0 -5 -1 -5 -3z"/>
<path d="M6426 4885 c11 -48 25 -76 18 -35 -4 19 -10 42 -15 50 -6 10 -7 5 -3
-15z"/>
<path d="M5505 4780 c9 -25 23 -72 30 -105 7 -33 14 -48 14 -34 1 31 -36 159
-50 174 -6 5 -3 -10 6 -35z"/>
<path d="M571 4794 c0 -11 3 -14 6 -6 3 7 2 16 -1 19 -3 4 -6 -2 -5 -13z"/>
<path d="M6452 4795 c0 -21 25 -107 27 -90 0 6 -6 33 -13 60 -8 28 -14 41 -14
30z"/>
<path d="M551 4714 c0 -11 3 -14 6 -6 3 7 2 16 -1 19 -3 4 -6 -2 -5 -13z"/>
<path d="M538 4669 c4 -24 2 -30 -8 -24 -9 5 -11 4 -6 -4 9 -13 -3 -123 -13
-117 -3 2 -7 -53 -8 -123 l-1 -126 9 105 c5 58 16 149 25 203 10 62 13 102 7
108 -6 6 -8 -2 -5 -22z"/>
<path d="M6485 4690 c-4 -6 0 -54 9 -108 9 -53 17 -110 20 -127 2 -16 1 4 -2
45 -3 41 -6 91 -6 112 -1 20 -5 34 -10 31 -5 -3 -7 8 -4 26 5 33 3 38 -7 21z"/>
<path d="M5553 4575 c0 -22 2 -30 4 -17 2 12 2 30 0 40 -3 9 -5 -1 -4 -23z"/>
<path d="M5563 4485 c0 -27 2 -38 4 -22 2 15 2 37 0 50 -2 12 -4 0 -4 -28z"/>
<path d="M5574 4260 c0 -96 2 -136 3 -87 2 48 2 126 0 175 -1 48 -3 8 -3 -88z"/>
<path d="M1624 4195 c0 -77 2 -107 3 -67 2 40 2 103 0 140 -2 37 -3 4 -3 -73z"/>
<path d="M499 4128 c-2 -42 -1 -74 2 -72 3 2 9 -25 12 -60 8 -81 28 -198 33
-193 3 2 -2 47 -11 100 -8 52 -19 142 -23 198 l-8 104 -5 -77z"/>
<path d="M5563 4020 c0 -30 2 -43 4 -27 2 15 2 39 0 55 -2 15 -4 2 -4 -28z"/>
<path d="M6502 3960 c-7 -58 -16 -118 -19 -135 -3 -16 -3 -27 0 -24 10 8 39
204 35 236 -2 15 -9 -19 -16 -77z"/>
<path d="M1632 4025 c0 -16 2 -22 5 -12 2 9 2 23 0 30 -3 6 -5 -1 -5 -18z"/>
<path d="M1646 3955 c3 -22 10 -47 15 -55 11 -18 0 46 -13 75 -5 13 -6 7 -2
-20z"/>
<path d="M5552 3930 c0 -19 2 -27 5 -17 2 9 2 25 0 35 -3 9 -5 1 -5 -18z"/>
<path d="M5531 3834 c-7 -30 -11 -57 -8 -60 2 -2 9 21 16 52 7 30 11 57 8 60
-2 2 -9 -21 -16 -52z"/>
<path d="M6457 3718 c-10 -39 -16 -73 -13 -75 2 -2 11 28 21 67 10 39 15 73
13 75 -2 3 -12 -27 -21 -67z"/>
<path d="M551 3764 c0 -11 3 -14 6 -6 3 7 2 16 -1 19 -3 4 -6 -2 -5 -13z"/>
<path d="M5511 3748 c0 -9 -4 -25 -7 -35 -5 -17 -5 -17 6 0 6 10 9 25 7 35 -4
15 -5 15 -6 0z"/>
<path d="M561 3730 c0 -8 4 -22 9 -30 12 -18 12 -2 0 25 -6 13 -9 15 -9 5z"/>
<path d="M577 3659 c4 -13 8 -18 11 -10 2 7 -1 18 -6 23 -8 8 -9 4 -5 -13z"/>
<path d="M5654 3610 c14 -25 32 -70 40 -100 8 -30 15 -45 15 -33 1 31 -35 123
-60 153 -16 19 -15 15 5 -20z"/>
<path d="M591 3620 c0 -8 4 -24 9 -35 5 -13 9 -14 9 -5 0 8 -4 24 -9 35 -5 13
-9 14 -9 5z"/>
<path d="M6426 3604 c-4 -14 -5 -28 -3 -31 3 -2 8 8 11 23 4 14 5 28 3 31 -3
2 -8 -8 -11 -23z"/>
<path d="M610 3551 c0 -6 4 -13 10 -16 6 -3 7 1 4 9 -7 18 -14 21 -14 7z"/>
<path d="M6406 3543 c-6 -14 -5 -15 5 -6 7 7 10 15 7 18 -3 3 -9 -2 -12 -12z"/>
<path d="M1569 3493 c-6 -16 -12 -44 -15 -63 -2 -19 -1 -26 2 -15 3 11 11 39
19 63 15 47 11 58 -6 15z"/>
<path d="M6385 3479 c-4 -6 -5 -12 -2 -15 2 -3 7 2 10 11 7 17 1 20 -8 4z"/>
<path d="M640 3457 c0 -13 43 -122 52 -132 5 -5 -3 22 -17 60 -25 66 -35 86
-35 72z"/>
<path d="M5712 3420 c0 -19 2 -27 5 -17 2 9 2 25 0 35 -3 9 -5 1 -5 -18z"/>
<path d="M1543 3355 c0 -22 2 -30 4 -17 2 12 2 30 0 40 -3 9 -5 -1 -4 -23z"/>
<path d="M5702 3360 c0 -14 2 -19 5 -12 2 6 2 18 0 25 -3 6 -5 1 -5 -13z"/>
<path d="M6337 3341 c-4 -17 -3 -21 5 -13 5 5 8 16 6 23 -3 8 -7 3 -11 -10z"/>
<path d="M706 3297 c3 -10 9 -15 12 -12 3 3 0 11 -7 18 -10 9 -11 8 -5 -6z"/>
<path d="M1550 3298 c0 -19 30 -101 36 -96 1 2 -6 28 -16 58 -11 30 -19 47
-20 38z"/>
<path d="M6311 3293 c-19 -38 -42 -98 -32 -88 11 12 52 105 46 105 -2 0 -8 -8
-14 -17z"/>
<path d="M720 3266 c0 -11 30 -66 36 -66 2 0 -3 15 -12 33 -19 36 -24 44 -24
33z"/>
<path d="M5600 3132 c0 -4 -18 -30 -41 -57 -22 -27 -45 -58 -50 -69 -7 -15 -5
-14 8 3 10 14 35 45 56 70 34 42 44 61 32 61 -3 0 -5 -3 -5 -8z"/>
<path d="M1639 3105 c17 -33 31 -51 31 -40 0 6 -10 21 -21 35 -13 17 -17 18
-10 5z"/>
<path d="M800 3106 c0 -12 59 -114 71 -122 5 -3 -3 16 -19 43 -16 26 -34 57
-40 68 -6 11 -12 16 -12 11z"/>
<path d="M1690 3040 c6 -11 13 -20 16 -20 2 0 0 9 -6 20 -6 11 -13 20 -16 20
-2 0 0 -9 6 -20z"/>
<path d="M6167 3012 c-27 -42 -60 -99 -45 -78 7 10 25 34 41 53 23 31 34 53
25 53 -2 0 -11 -12 -21 -28z"/>
<path d="M939 2883 c12 -18 24 -33 27 -33 9 0 -15 37 -33 51 -12 10 -11 5 6
-18z"/>
<path d="M6089 2893 c-32 -39 -44 -57 -32 -50 13 8 57 67 50 67 -2 0 -10 -8
-18 -17z"/>
<path d="M1827 2815 c3 -22 7 -42 9 -44 8 -9 2 45 -6 64 -7 14 -8 8 -3 -20z"/>
<path d="M990 2814 c0 -5 14 -25 31 -44 l30 -35 -27 40 c-16 22 -29 42 -31 44
-2 2 -3 0 -3 -5z"/>
<path d="M5970 2734 c-42 -51 -76 -102 -53 -79 23 22 104 127 101 130 -2 1
-23 -22 -48 -51z"/>
<path d="M1080 2693 c18 -24 35 -43 37 -43 9 0 -18 37 -43 60 -24 22 -23 20 6
-17z"/>
<path d="M1823 2642 c-8 -62 -9 -101 -2 -115 9 -21 9 -21 5 3 -3 14 -1 55 5
92 6 37 9 78 7 90 -2 13 -8 -19 -15 -70z"/>
<path d="M1157 2605 c17 -22 53 -60 79 -85 43 -40 42 -38 -10 20 -83 91 -104
111 -69 65z"/>
<path d="M5827 2570 c-62 -63 -85 -99 -28 -45 43 41 81 88 69 84 -2 0 -20 -18
-41 -39z"/>
<path d="M5243 2510 c-11 -16 -10 -18 2 -14 8 4 15 12 15 20 0 19 -3 18 -17
-6z"/>
<path d="M1830 2495 c0 -10 40 -75 47 -75 2 0 -6 17 -18 38 -28 45 -29 47 -29
37z"/>
<path d="M5650 2398 c-47 -44 -62 -62 -35 -40 48 39 134 122 125 122 -3 -1
-43 -37 -90 -82z"/>
<path d="M2055 2459 c-4 -6 -5 -12 -2 -15 2 -3 7 2 10 11 7 17 1 20 -8 4z"/>
<path d="M5419 2453 c-13 -16 -12 -17 4 -4 16 13 21 21 13 21 -2 0 -10 -8 -17
-17z"/>
<path d="M1326 2433 c17 -15 55 -48 85 -72 l54 -43 -55 51 c-30 28 -68 61 -85
72 l-30 21 31 -29z"/>
<path d="M5280 2456 c0 -2 8 -10 18 -17 15 -13 16 -12 3 4 -13 16 -21 21 -21
13z"/>
<path d="M5355 2420 c-13 -6 -15 -9 -5 -9 8 0 22 4 30 9 18 12 2 12 -25 0z"/>
<path d="M1470 2317 c0 -3 18 -20 40 -37 22 -17 40 -29 40 -27 0 3 -18 20 -40
37 -22 17 -40 29 -40 27z"/>
<path d="M5524 2299 c-10 -12 -54 -46 -96 -76 -43 -30 -81 -59 -84 -64 -9 -15
134 87 179 127 20 19 33 34 29 34 -5 0 -17 -10 -28 -21z"/>
<path d="M2360 2296 c20 -8 51 -16 70 -19 19 -4 8 2 -25 13 -67 22 -100 26
-45 6z"/>
<path d="M4575 2280 c-13 -5 -14 -9 -5 -9 8 0 24 4 35 9 13 5 14 9 5 9 -8 0
-24 -4 -35 -9z"/>
<path d="M2500 2260 c19 -5 71 -11 115 -14 71 -4 73 -4 20 3 -133 18 -172 21
-135 11z"/>
<path d="M4475 2250 c-13 -5 -14 -9 -5 -9 8 0 24 4 35 9 13 5 14 9 5 9 -8 0
-24 -4 -35 -9z"/>
<path d="M1585 2226 c17 -14 34 -26 39 -26 11 0 11 0 -34 29 l-35 23 30 -26z"/>
<path d="M2728 2233 c17 -2 47 -2 65 0 17 2 3 4 -33 4 -36 0 -50 -2 -32 -4z"/>
<path d="M1640 2180 c35 -24 54 -31 30 -11 -14 11 -29 21 -35 21 -5 0 -3 -5 5
-10z"/>
<path d="M5283 2129 c-46 -29 -41 -36 5 -8 46 28 47 29 36 29 -5 0 -24 -10
-41 -21z"/>
<path d="M1750 2116 c0 -2 7 -7 16 -10 8 -3 12 -2 9 4 -6 10 -25 14 -25 6z"/>
<path d="M1811 2080 c34 -28 153 -94 144 -80 -3 6 -30 22 -58 36 -29 15 -65
35 -82 46 l-30 19 26 -21z"/>
<path d="M5132 2037 c-39 -22 -70 -42 -68 -44 5 -5 134 66 142 78 7 12 11 13
-74 -34z"/>
<path d="M1981 1986 c10 -9 69 -36 69 -32 0 6 -55 36 -66 36 -4 0 -5 -2 -3 -4z"/>
<path d="M5000 1970 c-19 -11 -31 -19 -27 -20 11 0 67 29 67 35 0 7 -1 7 -40
-15z"/>
<path d="M3281 1973 c-1 -6 -4 -20 -7 -30 -5 -17 -5 -17 6 0 6 10 9 23 6 30
-3 9 -5 9 -5 0z"/>
<path d="M4930 1935 c-14 -8 -20 -14 -14 -15 5 0 19 7 30 15 24 18 16 19 -16
0z"/>
<path d="M2090 1930 c8 -5 20 -10 25 -10 6 0 3 5 -5 10 -8 5 -19 10 -25 10 -5
0 -3 -5 5 -10z"/>
<path d="M2135 1912 c6 -6 39 -22 75 -37 36 -14 79 -33 97 -41 17 -8 35 -14
40 -14 10 1 -47 30 -102 52 -22 9 -58 24 -80 33 -22 9 -35 12 -30 7z"/>
<path d="M3252 1895 c-17 -37 -14 -45 4 -12 9 16 14 31 11 33 -2 2 -9 -7 -15
-21z"/>
<path d="M4772 1868 c-51 -22 -91 -42 -89 -44 4 -4 186 72 195 81 12 11 -18 1
-106 -37z"/>
<path d="M3217 1815 c-9 -20 -17 -41 -17 -48 0 -7 9 8 20 32 24 52 21 66 -3
16z"/>
<path d="M4610 1810 c-18 -12 -2 -12 25 0 13 6 15 9 5 9 -8 0 -22 -4 -30 -9z"/>
<path d="M2450 1792 c8 -5 26 -13 40 -16 17 -5 20 -4 10 2 -8 5 -26 13 -40 16
-17 5 -20 4 -10 -2z"/>
<path d="M2527 1769 c7 -7 15 -10 18 -7 3 3 -2 9 -12 12 -14 6 -15 5 -6 -5z"/>
<path d="M4455 1760 c-16 -7 -17 -9 -3 -9 9 -1 20 4 23 9 7 11 7 11 -20 0z"/>
<path d="M2568 1753 c7 -3 16 -2 19 1 4 3 -2 6 -13 5 -11 0 -14 -3 -6 -6z"/>
<path d="M2630 1736 c0 -6 249 -65 300 -70 l45 -6 -45 11 c-25 5 -100 23 -168
40 -133 31 -132 31 -132 25z"/>
<path d="M4378 1733 c7 -3 16 -2 19 1 4 3 -2 6 -13 5 -11 0 -14 -3 -6 -6z"/>
<path d="M3166 1675 c-3 -8 -16 -20 -28 -25 -21 -8 -21 -9 -3 -9 19 -1 52 35
42 45 -3 3 -7 -2 -11 -11z"/>
<path d="M3058 1653 c12 -2 30 -2 40 0 9 3 -1 5 -23 4 -22 0 -30 -2 -17 -4z"/>
</g>
</svg>
