<svg version="1" xmlns="http://www.w3.org/2000/svg" width="666.667" height="666.667" viewBox="0 0 500.000000 500.000000"><path d="M166.2 25c-5.2 3.8-18 18.4-28.5 32.7l-8.2 11.2h-7.8c-4.8.1-8.9.7-10.7 1.6-2.7 1.4-6 5.1-6 6.7 0 .4 4 .9 8.8 1l8.9.3-6.9 11.9c-11.1 19.4-13.1 27.2-8.4 31.7 1.4 1.3 2.8 2.2 3.3 1.9.4-.3 3.3-5.9 6.4-12.6 3-6.6 7.9-16.4 10.8-21.8l5.3-9.8 5.7.7c12.5 1.4 12.2 1.3 11.4 5.4-1.1 5.8-.8 19.3.6 23.3 2.7 7.9 11.2 10.3 18.5 5.3 3.7-2.5 3.8-2.5 5.4-.6.9 1.1 2.9 2.3 4.3 2.6 2.3.6 3.1-.2 8.9-9.2 8-12.1 15.3-19.7 19.9-20.6 6.2-1.3 7.5 2.5 4.6 13.3-2.2 8.2-1.9 11.7 1.1 14.7 2.3 2.3 3.2 2.5 8.3 2.1 3.7-.3 6.8-1.1 8.6-2.5 2.8-2 2.9-2 4.4-.2.9 1 2.8 2.1 4.2 2.4 2.3.6 3.1-.2 8.9-9.2 8-12.1 15.3-19.7 19.9-20.6 6.2-1.3 7.5 2.5 4.6 13.3-2.2 8.1-1.9 11.7 1 14.5 4.5 4.6 15.7 2.7 20.8-3.4l2.2-2.7 1.7 3.7c2.3 5.2 7.8 7.9 16.1 7.9 11.7 0 23.9-8 31.2-20.4 2.3-3.9 2.6-5 1.4-5.7-2.1-1.3-2.5-1.1-3.7 1.6-1.6 3.5-8.9 11.2-13.8 14.6-11.3 7.8-22.4 5.3-22.4-5 0-2.6.4-2.9 4.3-3.5 5.7-.9 15.4-5.5 20.1-9.6 11-9.7 9.8-23-2.1-23-12.5.1-27.5 13.5-31.9 28.6-2.8 9.7-14 18.4-15.9 12.5-.3-1.1.5-5.3 2-9.4 3.9-11.3 3.1-18-2.5-22.4-2.2-1.8-10-1.5-13.9.6-1.8 1-5.9 4.4-9.1 7.5l-5.8 5.8 1-4.5c1.6-7.6-1.8-10.7-8.5-7.6-1.9.9-2.5 2.3-3.6 8.5-.9 5.7-2.1 8.7-5.2 13.4-4.4 6.4-8.5 10-11.7 10-3.3 0-3.5-3.3-.7-11.3 3.9-11.3 3.1-18-2.5-22.4-2.2-1.8-10-1.5-13.9.6-1.8 1-5.9 4.4-9.1 7.5l-5.8 5.8 1-4.5c1.6-7.6-1.8-10.7-8.5-7.6-2 .9-2.6 2.1-3.1 6.3-.9 7.1-4.8 14.6-10.1 19.5-6.4 5.9-8.8 5.3-10.1-2.6-1.8-11.8 9.6-59.5 17.6-73.1 1.2-1.9 2-3.5 1.8-3.6-.2-.1-1.6-1.2-3.2-2.4-3.9-2.9-6.5-2.8-11.4.8zM160 48.7c-2.6 7.6-5.3 16.4-6 19.5-1.5 6.5-1.4 6.5-10 4.4-3.6-.9-5.4-1.8-5.2-2.7 1-4 23.7-34.9 25.6-34.9.2 0-1.8 6.2-4.4 13.7zm171.2 26.5c.9 2.4-1.2 7.4-4.7 11.5-3.4 4.1-15.9 11.3-17.1 10-1-1 4-9.9 8.3-14.7 5.7-6.3 12.5-9.7 13.5-6.8zM365.4 23.7c-4.3 4.4-5.7 12.8-2.5 15.7 1.9 1.8 2 1.7 3.6-2 .9-2.2 2.9-5.6 4.6-7.6 2.5-3.1 2.8-4.1 1.9-5.8-1.3-2.5-5.2-2.6-7.6-.3zM380.6 64.5c-.8.8-1.8 3.7-2.1 6.3-.4 2.6-1.4 5.8-2.2 7.2-4.1 6.6-10 13.3-13.4 15-4.3 2.2-4.9 3.5-4.9 10.2 0 6.5 3.5 12.9 8.4 15.2 7.9 3.7 20.8.9 24.4-5.4 1-1.8 2.9-3.2 4.6-3.6 5.9-1.3 15.7-13.2 14.1-17.1-.4-1.2-1.4-.3-3.6 3.1-2.7 4.1-9.1 9.6-11 9.6-.4 0-.7-2.4-.7-5.3 0-3.3-1.4-9.4-3.7-16.3-2.5-7.5-3.5-11.9-3.1-14.2.3-1.8.2-4-.1-4.8-.7-1.8-4.8-1.8-6.7.1zm2.8 33.9c.5 3.3.3 5.6-.3 6-1.5.9-8.1-2.7-11.4-6.2l-2.9-3 3.6-4.6c1.9-2.5 4.3-6 5.3-7.7l1.8-3 1.6 6.5c.9 3.6 2 9 2.3 12zm-5.5 9.4c4.1 1.9 4.1 1.9 2.1 3.7-2.7 2.4-8.3 2.4-10.9.1-2.4-2.2-4.5-8.1-3.7-10.2.5-1.3 1.3-1 4.5 1.5 2.1 1.7 5.7 3.9 8 4.9zM449.9 88.4c-13.4 4.8-19.6 20.1-13.5 33.2 3.8 8.2 12.6 13.7 21.6 13.7 17.9-.1 29.6-18.4 22-34.6-5.2-11-18.6-16.4-30.1-12.3zM36.5 93c-5 1.5-11 7.4-13.5 13.1-1.7 4.2-2.1 6.6-1.8 11.9.3 5.7.9 7.3 3.9 11.5 11.1 15.5 34.2 13.3 42-4 2.5-5.4 2.4-13.8-.2-19.5-4.1-9.1-10.2-13.2-20.4-13.6-3.8-.2-8.4.1-10 .6zM449.5 140.1c-4.8 1.3-11.5 7.8-14.1 13.3-4.4 9.4-2.3 19.8 5.3 27.3 11.4 11.1 29.5 8.6 37.3-5.1 3.8-6.7 4.7-13.1 2.5-19.7-4.3-12.7-17.9-19.7-31-15.8zM45.2 149.1c-6.2 1.2-13.1 6.5-16.2 12.4-3.3 6.5-3.4 16.1-.3 22 6.3 12 20.4 16.8 32.1 10.9 6.7-3.3 10.8-8.1 12.8-15 4-13.7-4.7-27.8-18.7-30.4-2.8-.6-5.2-1-5.3-.9 0 .1-2 .5-4.4 1zM425.5 193.4c-21.6 10-17.8 40.9 5.5 45.8 17.3 3.6 32.5-13.5 27.5-30.7-4-14-19.9-21.3-33-15.1zM58.5 200.8c-9.6 4.5-14.7 12.3-14.7 22.3s5.8 18.7 15.1 22.7c11.2 4.7 25.6-1.2 30.8-12.6 4.3-9.3 2.4-19.9-4.8-27.1-4.6-4.6-8.6-6.4-15.9-6.8-4.9-.3-7.5.1-10.5 1.5zM241 221.4c-44.8 9.5-70.3 49-55.5 85.8 8.3 20.6 27.4 36.2 51 41.8 5 1.2 9.5 2.3 10.2 2.5.9.3.9 1.3-.3 4.1-.9 2.1-1.4 5.3-1.2 7.1.4 3.1.2 3.3-2.8 3.3-4.4 0-9.6 1.9-11.6 4.2-2.3 2.6-2.3 9.3 0 13.8 3.1 6.3 5.5 6.8 31 6.8 28.1 0 32.7-.6 36.6-4.9 2.5-2.9 2.8-3.7 2.4-8.6-.4-4.4-1.1-6-3.6-8.5-3.1-3.1-3.4-3.2-11.7-2.5-2.8.2-3-.1-4.7-5.8-2.8-10.2-2.6-11 3.5-13 22.6-7.4 40.3-24.4 46.6-45 2.5-8.1 2.8-23.2.6-31.5-4.8-18.3-20.5-35.5-40.1-44.1-13.4-6-36.3-8.4-50.4-5.5zm49.5 49.6c.3.5 1.4 1 2.4 1s2.7.8 3.9 1.7c1.1 1 3.2 2.7 4.6 3.7 1.4 1 2.6 2.3 2.6 2.8s.7 1.6 1.5 2.4c2 2 1.8 7.4-.6 15.9-1.8 6.5-2.4 9-3.2 14-.3 1.7-1.4 2.1-6.8 2.6-3.5.3-7.4.9-8.6 1.3-2.8 1-3.8 3.7-1.8 4.8.8.5 1.3 1.3 1.1 1.7-.6.9.6 1.1 8.4 1.5 3 .2 5.9.4 6.3.5.4 0 .3.9-.2 1.9-.6 1.2-3.1 2.3-6.5 3.1-3.1.7-5.6 1.7-5.6 2.2 0 .6-.4.8-1 .4-.5-.3-2.5.1-4.5.9-1.9.8-3.5 1.3-3.5 1 0-.3-.5-.2-1.2.2-4 2.5-28.5 2.1-31.1-.5-.6-.6-1.8-.5-3.3.1-1.2.6-3.1.7-4.1.3-1-.4-2.9-.9-4.3-1.1-6.5-.8-10.7-2.7-12.3-5.4-1-1.5-1.7-3-1.7-3.2 0-.1 2.9-.2 6.4 0 4.8.3 7.1-.1 9-1.3 3.1-2.1 3.3-4 .6-5.5-2.9-1.6-2.5-3.2.5-2 1.4.5 2.5.6 2.5.1 0-1.6 4.7-3 5.9-1.8.9.9 1.1.8.6-.6-.4-1-.2-1.7.4-1.7.6 0 1.1-.9 1.1-2 0-2.4-.3-2.4-4.3-.3-1.8.9-4.8 1.6-6.7 1.4-3.9-.2-11-3-11-4.2 0-.5-.7-.6-1.5-.3-2.8 1.1-1.7 4.9 1.8 6.3l3.2 1.3-2.5.7c-3.7 1.1-6.5.7-6.2-.8.1-.7-.3-2-1-2.9-1.1-1.4-1-1.5.7-.9s1.8.5.4-.5c-.8-.7-1.8-2-2.2-2.8-.4-.8-1.1-2.2-1.6-3-3.4-5.6-4.8-18-2.1-18 .6 0 1-.5 1-1 0-1.9 7.9-9.2 9.1-8.4.7.4.9.3.6-.3-.9-1.5.9-1.9 6.3-1.7 5.4.3 6.4.6 11.5 2.8 2.8 1.3 6.8 1.9 13.3 2 5.2 0 9.6-.1 9.8-.3.2-.2 1.5-.6 2.9-.7 1.7-.2 2.3.1 1.9.9-.3.7.1.5.8-.3 2.2-2.4 12.4-7.3 13.7-6.6.6.4 1.1.4 1-.1-.4-2.4 2.3-3.4 3.6-1.3zm18 39.8c-.4 2-1 3.1-1.5 2.6s-.4-3.1.3-5.9c.8-3.7 1.2-4.4 1.5-2.6.2 1.3.1 3.9-.3 5.9zm-94.4-3.1c.9 1.6 1.9 4.5 2.2 6.5.5 3.5.5 3.6-1.2 1.9-3.4-3.4-4.8-6.2-4.3-8.6.6-3.2 1.4-3.2 3.3.2zm19.9 7.9c0 .2-.9.4-2 .4s-2-.4-2-.9.9-.7 2-.4c1.1.3 2 .7 2 .9zm71.7.6c-.3.8-.6.5-.6-.6-.1-1.1.2-1.7.5-1.3.3.3.4 1.2.1 1.9zm-88 12c-.3.8-.6.5-.6-.6-.1-1.1.2-1.7.5-1.3.3.3.4 1.2.1 1.9zm44.2 14.9c-4.1 1.6-7.5 2.9-7.6 2.9-.2 0-.2-.9 0-1.9.6-3.8 2.2-4.6 8.8-4.3l6.3.4-7.5 2.9zm-8.5 7.1c-1 7.1-1.3 14.8-.5 14.3.5-.2 2.4.1 4.2.9 1.9.7 4.3 1.6 5.4 2.1 2 .7 2 .7-.2 1.5-2.4 1-6.5.2-5.8-1 .3-.5-.5-.6-1.7-.2-1.6.4-1.9.2-1.3-.8.5-.9.4-1.1-.4-.6-1.9 1.2-6.1-2.1-6.1-4.9 0-1.9 5.8-14.5 6.7-14.5.1 0 0 1.5-.3 3.2zm18.6 16c0 2.2-1.4 3.5-4.4 4.2-2.6.6-2.8.5-1.7-.8.7-.8 1-1.9.7-2.5-.5-.8.3-1.2 4.7-2 .4 0 .7.5.7 1.1z"/><path d="M270 309c0 2.6 6.7 5.8 10.9 5.2 1.7-.2 3.8.1 4.6.8.8.7 1.5.8 1.5.4 0-.5 1.5-1.6 3.3-2.3 4-1.8 6-3.8 5.2-5.1-.9-1.5-3.1-1.2-7.2 1-4.5 2.4-6.8 2.5-10.7.5-4.7-2.5-7.6-2.7-7.6-.5zM250.1 325.9c1.2 3.2 7.6 6.4 12.1 6 3.7-.4 8.8-4.5 8.8-7.1 0-2.5-2.5-2.2-4.7.5-2.6 3.3-4.2 4-5.8 2.7-.7-.6-3.6-1.9-6.3-2.9l-5-1.9.9 2.7zM392.4 234.4c-5.8 2.7-12 9.4-13.4 14.5-5.7 20.7 15.2 38.7 33.9 29.2 19.1-9.8 17.3-37.5-3-44.6-5.9-2.1-11.6-1.8-17.5.9zM102.5 242.1c-5.5 1.3-11.4 5.6-14.9 10.8-3.7 5.6-4.7 15-2.2 21.5 2.2 5.7 8.5 12 14.1 14.2 6.5 2.5 15 1.6 21.1-2.2 13.6-8.4 15.4-28.2 3.5-38.6-6-5.3-14.2-7.4-21.6-5.7zM148.7 270.4c-14.3 5.1-20.6 19.7-14.3 33.1 5.7 12.5 20.5 17.7 32.4 11.6 12.1-6.2 16.7-20.4 10.7-32.6-5.2-10.7-17.8-16-28.8-12.1zM351.7 270.6c-6.8 2.1-13 8.6-15.3 15.7-4.2 13.3 4.5 27.9 18.2 30.7 14.3 3 27.6-6.8 29.1-21.5 1.8-17.1-15.1-30.3-32-24.9zM111.5 416.7c-6.3 3.3-11.5 9.8-11.5 14.3 0 2.3 3.3 6 5.5 6 1.1 0 1.5-1.1 1.5-4 0-2.3.9-5.9 2-8 2-3.9 6.5-7.8 7.6-6.7.3.3-1.2 6.1-3.5 12.9-3.7 11.1-4.4 12.5-7 13.5-1.6.6-3.4 2-4 3.2-1.1 1.9-.9 2.1 1.8 2.1h3l-1.5 4.2c-1.6 4.6-7.4 26.3-7.4 27.9 0 1.7 3.1.9 5.3-1.3 1.5-1.5 3.8-7.4 6.6-17 3.6-12 4.8-14.7 6.5-15.2 2.8-.8 16.6-.8 16.6 0 0 .4-1.2 4.9-2.6 10-4.4 16.2-3.3 24.4 3.1 24.4 1.8 0 2.1-.4 1.7-2.5-.5-2.8 1.2-15.7 3.4-25.8 1.2-5.2 2-6.7 3.4-6.7 1 0 2.8-.9 4.1-2l2.4-1.9-3.7-.1h-3.7l1.9-6.8c1-3.7 3-10.2 4.3-14.5 2.4-7.3 2.4-7.7.6-7.7-2.7 0-4.6 3.5-8.9 16.2l-3.8 11.3-9.1.3c-5 .1-9.1-.1-9.1-.6 0-.4 1.3-5.1 3-10.2 3.2-10.3 3.6-14 1.8-15.8-1.7-1.7-6.7-1.4-10.3.5zM266.9 417.1c-2.1 2.1-7 12-11.9 24.2-1.6 3.8-2.7 5.4-3.4 4.7-1.4-1.4-7.1-1.2-11.1.4-5.2 2.2-12.4 10-15.5 17-1.6 3.5-4.3 7.5-6 9-5.7 4.7-6.8 3-4-6 2-6.5 2-6.8.3-10.3-3-6-9.6-5.6-16.8 1l-4.3 4 .1-3.2c.1-2-.4-3.5-1.5-4.3-2.8-1.7-5.1.4-6.8 6.3-1.7 5.9-5.8 11.4-10.1 13.6-5.5 2.9-6.4-.2-2.3-7.8 1.4-2.7 2.3-5.4 2.1-6.1-.3-.6.1-2 .9-3.1 2-2.7 1.7-4.2-1.1-7-1.9-2-3.4-2.5-7.3-2.5-10.1 0-21.8 11.6-23.8 23.7-.4 3-.1 4.4 1.6 6.6 3.1 3.9 7.6 3.7 13.2-.7l4.4-3.3 1.7 2.8c1.3 2.4 2.3 2.9 5.4 2.9 2.1 0 5.2-.8 6.8-1.8 2.7-1.7 3.3-1.7 5.2-.4 1.2.7 2.7 1.2 3.2 1 .5-.1 3.6-4 7-8.5 6-8.2 10.9-12 13.8-10.9 1.6.6 1.5 2.8-.3 12.4-1.3 6.9 6.6 9.7 13.8 4.9l3.4-2.4 1.7 2.4c3.5 4.6 12.2 1.8 18.7-5.9l2.5-2.9v3.9c.1 2.2.7 4.7 1.4 5.6 2.1 2.5 8.2 2 12.5-.9 3.3-2.3 3.7-2.3 3.1-.6-.4 1.5.1 2.1 2.5 2.9 3 1.1 3 1.1 6.1-5 3-6 13.4-17.8 15.7-17.8 2 0 1.4 5-1.5 13.3-2.7 7.9-2.6 9.2 1.1 9.9 1.3.2 2.9-1.5 6-6.5 4.7-7.6 9.7-13.7 11.5-13.7 1.4 0 1.4 2.9-.1 10.1-1 5-.9 6 .5 8.3 2.2 3.3 8.2 3.6 11.8.7 2.3-1.9 2.4-1.9 4.6.5 3.4 3.7 8.3 3.3 13.1-1.1l3.9-3.4 2.2 2.9c2.9 4.1 8.2 4.1 13.6.2l3.9-2.8 2.2 2.3c4.4 4.3 9.7 2.9 17.7-4.6l3.7-3.5v3.5c0 7.3 7.5 9.2 14.8 4l4-3 .6 2.4c1.3 5.1 12.2 7.3 18.9 3.9 8.3-4.2 16.2-13.3 13.7-15.8-1-.8-1.4-.7-1.8.4-.3.8-2.8 3.8-5.6 6.6-6.2 6.3-12.3 8.5-16.2 5.9-1.8-1.2-2.4-2.4-2.2-4.1.2-2.1 1.3-2.9 5.7-4.4 6.4-2.1 9.8-4.5 12.9-9 4.2-6.3 2.1-12-4.4-12-7.4 0-15.9 7-20.8 17.2-2.6 5.3-5.2 7.9-9.3 9.2-2.2.7-2.3.5-2.3-4.4 0-6.8 3.4-16.5 12.1-34.8 4-8.5 6.9-15.8 6.6-16.6-1-2.6-4.5-1.8-7.1 1.7-2.1 2.8-6.2 11.2-12.7 26.6-.7 1.8-1.3 2.1-2.1 1.3-1.8-1.8-7.4-1.4-11.6.7-5.3 2.8-10.5 8.6-14.9 16.6-3.6 6.6-9.3 12-11.7 11.2-2-.7-1.7-4.5.8-9.5 1.8-3.6 2.2-5.2 1.4-6-.8-.8-.7-1.3.5-1.8 2.4-.9 2.2-5.9-.3-8.4-3.1-3.1-10.5-2.7-16.1.8-5.5 3.6-9.2 7.9-12.9 15.2-2.7 5.4-7 10-9.2 10-.6 0-.8-1.6-.5-3.8 2.4-16.6 2.1-18.2-4.3-18.2-2.9 0-4.8.8-7.2 2.9l-3.3 2.9V455c0-4.8-1.9-7-6-7-3.5 0-9.8 4-13.2 8.4l-2.1 2.6.2-3.2c.1-3-.2-3.3-3.1-3.6-3.6-.4-4.4.6-6.2 8.3-1.3 5.4-3.9 8.8-8.5 11.2-4.4 2.3-5.2.7-3.8-7.5 1.3-7.6 3.8-14.2 12.3-32.1 3.2-6.8 5.9-13.5 5.9-14.8 0-3-3.2-3.1-6.1-.2zm-17 32.8c3.6 2.3-12 23.8-16.5 22.9-6.2-1.1 1.7-18.8 10.1-22.4 3.6-1.6 4.6-1.7 6.4-.5zm135.8-.1c2.8 1.8-8 18.7-13.8 21.7-3.6 1.9-4.9 1.3-4.9-2.6 0-4.3 2.3-9.1 6.6-13.9 4.9-5.4 9-7.2 12.1-5.2zm37 4.7c-1.8 3.8-8.9 9.5-11.9 9.5-1.8 0-1.8-.1.1-3.8 2-3.9 7.5-9.6 10.1-10.5 2.7-.9 3.5 1.1 1.7 4.8zm-251.9-3.3c2.2 2.2 1.2 4.9-4.7 12.6-6.6 8.7-8.6 10.7-11.8 11.6-2.1.7-2.3.4-2.3-2.9 0-6.2 6.5-17 12.4-20.6 3.6-2.2 4.8-2.3 6.4-.7zm176 0c2.3 2.3 1.2 4.9-5.7 13.6-7.1 9-11.7 12.5-13.2 10-1.8-2.8 2.3-12.8 7.7-18.8 5.1-5.6 8.8-7.2 11.2-4.8z"/></svg>